<svg width="500" height="500" viewBox="0 0 500 500" fill="none" xmlns="http://www.w3.org/2000/svg">
<path d="M106.36 242.355C104.079 242.355 102.12 243.199 100.485 244.876C98.8444 246.558 98.0267 248.584 98.0267 250.959C98.0267 253.365 98.8444 255.412 100.485 257.105C102.12 258.787 104.079 259.626 106.36 259.626C107.454 259.626 108.49 259.495 109.464 259.23C110.449 258.954 111.173 258.678 111.631 258.396L112.235 257.98L116.339 266.376C116.016 266.615 115.574 266.907 115.006 267.251C114.433 267.584 113.136 268.042 111.11 268.626C109.079 269.219 106.907 269.521 104.589 269.521C99.4486 269.521 94.9277 267.719 91.0267 264.105C87.1361 260.48 85.1934 256.141 85.1934 251.084C85.1934 245.99 87.1361 241.615 91.0267 237.959C94.9277 234.292 99.4486 232.459 104.589 232.459C106.907 232.459 109.048 232.73 111.006 233.271C112.964 233.813 114.35 234.365 115.173 234.917L116.339 235.73L112.235 244.001C110.735 242.907 108.777 242.355 106.36 242.355Z" fill="#FFD0DC"/>
<path d="M115.981 213.959C117.398 212.542 119.085 211.834 121.044 211.834C123.002 211.834 124.679 212.542 126.085 213.959C127.502 215.365 128.21 217.042 128.21 219.001C128.21 220.959 127.502 222.646 126.085 224.063C124.679 225.469 123.002 226.167 121.044 226.167C119.085 226.167 117.398 225.469 115.981 224.063C114.575 222.646 113.877 220.959 113.877 219.001C113.877 217.042 114.575 215.365 115.981 213.959ZM114.835 233.48V268.501H126.919V233.48H114.835Z" fill="#FFD0DC"/>
<path d="M129.033 268.501V233.48H141.117V237.167H141.242C144.377 234.032 147.726 232.459 151.283 232.459C153.002 232.459 154.721 232.688 156.429 233.146C158.137 233.594 159.773 234.292 161.346 235.251C162.913 236.209 164.184 237.563 165.158 239.313C166.143 241.063 166.637 243.1 166.637 245.417V268.501H154.554V248.709C154.554 246.891 153.971 245.303 152.804 243.938C151.648 242.563 150.143 241.876 148.283 241.876C146.46 241.876 144.809 242.584 143.325 244.001C141.851 245.407 141.117 246.975 141.117 248.709V268.501H129.033Z" fill="#FFD0DC"/>
<path d="M203.154 252.667H177.758C177.758 255.126 178.555 256.949 180.154 258.126C181.747 259.308 183.477 259.896 185.341 259.896C187.299 259.896 188.846 259.641 189.987 259.126C191.122 258.6 192.424 257.558 193.883 256.001L202.612 260.376C198.971 266.475 192.914 269.521 184.445 269.521C179.164 269.521 174.638 267.719 170.862 264.105C167.081 260.48 165.195 256.12 165.195 251.021C165.195 245.928 167.081 241.558 170.862 237.917C174.638 234.282 179.164 232.459 184.445 232.459C189.997 232.459 194.518 234.063 198.008 237.271C201.492 240.48 203.237 245.063 203.237 251.021C203.237 251.844 203.206 252.391 203.154 252.667ZM178.112 245.98H191.424C191.143 244.162 190.424 242.766 189.258 241.792C188.102 240.808 186.617 240.313 184.799 240.313C182.799 240.313 181.201 240.834 180.008 241.876C178.826 242.917 178.195 244.287 178.112 245.98Z" fill="#FFD0DC"/>
<path d="M238.524 237.813C241.8 241.386 243.441 245.766 243.441 250.959C243.441 256.141 241.8 260.532 238.524 264.126C235.243 267.725 231.076 269.521 226.024 269.521C221.383 269.521 217.566 268.063 214.566 265.146V286.251H202.482V233.48H214.42V237.438H214.566C217.566 234.12 221.383 232.459 226.024 232.459C231.076 232.459 235.243 234.245 238.524 237.813ZM228.253 256.896C229.821 255.344 230.607 253.365 230.607 250.959C230.607 248.542 229.847 246.579 228.337 245.063C226.837 243.537 224.863 242.771 222.42 242.771C220.045 242.771 218.092 243.542 216.566 245.084C215.05 246.626 214.295 248.584 214.295 250.959C214.295 253.365 215.076 255.344 216.649 256.896C218.217 258.438 220.139 259.209 222.42 259.209C224.738 259.209 226.68 258.438 228.253 256.896Z" fill="#FFD0DC"/>
<path d="M242.689 268.499V209.791H254.773V237.166H254.898C258.033 234.031 261.382 232.458 264.939 232.458C266.658 232.458 268.377 232.687 270.085 233.145C271.794 233.593 273.429 234.291 275.002 235.249C276.57 236.208 277.84 237.562 278.814 239.312C279.799 241.062 280.294 243.098 280.294 245.416V268.499H268.21V248.708C268.21 246.89 267.627 245.301 266.46 243.937C265.304 242.562 263.799 241.874 261.939 241.874C260.117 241.874 258.465 242.583 256.981 243.999C255.507 245.406 254.773 246.973 254.773 248.708V268.499H242.689Z" fill="#FFD0DC"/>
<path d="M297.967 264.166C294.686 260.598 293.051 256.223 293.051 251.041C293.051 245.848 294.686 241.452 297.967 237.854C301.243 234.26 305.41 232.458 310.467 232.458C315.103 232.458 318.931 233.911 321.947 236.812V209.791H334.03V268.499H322.072V264.541H321.947C318.931 267.864 315.103 269.52 310.467 269.52C305.41 269.52 301.243 267.739 297.967 264.166ZM308.238 245.083C306.665 246.624 305.884 248.604 305.884 251.02C305.884 253.437 306.634 255.411 308.134 256.937C309.645 258.452 311.634 259.208 314.092 259.208C316.452 259.208 318.395 258.437 319.926 256.895C321.452 255.343 322.217 253.385 322.217 251.02C322.217 248.604 321.431 246.624 319.863 245.083C318.29 243.541 316.368 242.77 314.092 242.77C311.77 242.77 309.822 243.541 308.238 245.083Z" fill="#FFD0DC"/>
<path d="M335.799 268.499V209.791H347.882V268.499H335.799Z" fill="#FFD0DC"/>
<path d="M385.072 252.667H359.676C359.676 255.126 360.473 256.949 362.072 258.126C363.665 259.308 365.395 259.896 367.259 259.896C369.217 259.896 370.764 259.641 371.905 259.126C373.04 258.6 374.342 257.558 375.801 256.001L384.53 260.376C380.889 266.475 374.832 269.521 366.363 269.521C361.082 269.521 356.556 267.719 352.78 264.105C348.999 260.48 347.113 256.12 347.113 251.021C347.113 245.928 348.999 241.558 352.78 237.917C356.556 234.282 361.082 232.459 366.363 232.459C371.915 232.459 376.436 234.063 379.926 237.271C383.41 240.48 385.155 245.063 385.155 251.021C385.155 251.844 385.124 252.391 385.072 252.667ZM360.03 245.98H373.342C373.061 244.162 372.342 242.766 371.176 241.792C370.02 240.808 368.535 240.313 366.717 240.313C364.717 240.313 363.118 240.834 361.926 241.876C360.743 242.917 360.113 244.287 360.03 245.98Z" fill="#FFD0DC"/>
<path d="M404.388 253.896C406.565 253.896 408.419 254.662 409.951 256.188C411.477 257.704 412.242 259.558 412.242 261.751C412.242 263.891 411.477 265.725 409.951 267.251C408.419 268.761 406.565 269.521 404.388 269.521C402.247 269.521 400.414 268.761 398.888 267.251C397.372 265.725 396.617 263.891 396.617 261.751C396.617 259.558 397.372 257.704 398.888 256.188C400.414 254.662 402.247 253.896 404.388 253.896Z" fill="#FFD0DC"/>
<rect x="281.299" y="233" width="12.18" height="35.5" fill="#FF6188"/>
<rect x="272.299" y="243" width="30" height="10" fill="#FF6188"/>
<circle cx="287.299" cy="214" r="20" stroke="#FF6188" stroke-width="10"/>
</svg>
