<svg width="329" height="78" viewBox="0 0 329 78" fill="none" xmlns="http://www.w3.org/2000/svg">
<path d="M21.36 33.3548C19.0788 33.3548 17.1204 34.1986 15.485 35.8757C13.8444 37.5579 13.0267 39.584 13.0267 41.959C13.0267 44.3652 13.8444 46.4121 15.485 48.1048C17.1204 49.7871 19.0788 50.6257 21.36 50.6257C22.4538 50.6257 23.4902 50.4954 24.4642 50.2298C25.4486 49.9538 26.1725 49.6777 26.6309 49.3965L27.235 48.9798L31.3392 57.3757C31.0163 57.6152 30.5736 57.9069 30.0059 58.2507C29.4329 58.584 28.1361 59.0423 26.11 59.6257C24.0788 60.2194 21.9069 60.5215 19.5892 60.5215C14.4486 60.5215 9.92773 58.7194 6.02669 55.1048C2.13607 51.4798 0.193359 47.1413 0.193359 42.084C0.193359 36.9902 2.13607 32.6152 6.02669 28.959C9.92773 25.2923 14.4486 23.459 19.5892 23.459C21.9069 23.459 24.0475 23.7298 26.0059 24.2715C27.9642 24.8132 29.3496 25.3652 30.1725 25.9173L31.3392 26.7298L27.235 35.0007C25.735 33.9069 23.7767 33.3548 21.36 33.3548Z" fill="#FF6188"/>
<path d="M44.0332 59.5007V24.4798H56.1165V28.1673H56.2415C59.377 25.0319 62.7259 23.459 66.2832 23.459C68.002 23.459 69.7207 23.6882 71.429 24.1465C73.1374 24.5944 74.7728 25.2923 76.3457 26.2507C77.9134 27.209 79.1842 28.5632 80.1582 30.3132C81.1426 32.0632 81.6374 34.0996 81.6374 36.4173V59.5007H69.554V39.709C69.554 37.8913 68.9707 36.3027 67.804 34.9382C66.6478 33.5632 65.1426 32.8757 63.2832 32.8757C61.4603 32.8757 59.8092 33.584 58.3249 35.0007C56.8509 36.4069 56.1165 37.9746 56.1165 39.709V59.5007H44.0332Z" fill="#FF6188"/>
<path d="M118.154 43.6673H92.7578C92.7578 46.1257 93.5547 47.9486 95.1536 49.1257C96.7474 50.3079 98.4766 50.8965 100.341 50.8965C102.299 50.8965 103.846 50.6413 104.987 50.1257C106.122 49.5996 107.424 48.5579 108.883 47.0007L117.612 51.3757C113.971 57.4746 107.914 60.5215 99.4453 60.5215C94.1641 60.5215 89.638 58.7194 85.862 55.1048C82.0807 51.4798 80.1953 47.1204 80.1953 42.0215C80.1953 36.9277 82.0807 32.5579 85.862 28.9173C89.638 25.2819 94.1641 23.459 99.4453 23.459C104.997 23.459 109.518 25.0632 113.008 28.2715C116.492 31.4798 118.237 36.0632 118.237 42.0215C118.237 42.8444 118.206 43.3913 118.154 43.6673ZM93.112 36.9798H106.424C106.143 35.1621 105.424 33.7663 104.258 32.7923C103.102 31.8079 101.617 31.3132 99.7995 31.3132C97.7995 31.3132 96.2005 31.834 95.0078 32.8757C93.8255 33.9173 93.1953 35.2871 93.112 36.9798Z" fill="#FF6188"/>
<path d="M153.524 28.8132C156.8 32.3861 158.441 36.7663 158.441 41.959C158.441 47.1413 156.8 51.5319 153.524 55.1257C150.243 58.7246 146.076 60.5215 141.024 60.5215C136.383 60.5215 132.566 59.0632 129.566 56.1465V77.2507H117.482V24.4798H129.42V28.4382H129.566C132.566 25.1204 136.383 23.459 141.024 23.459C146.076 23.459 150.243 25.2454 153.524 28.8132ZM143.253 47.8965C144.821 46.3444 145.607 44.3652 145.607 41.959C145.607 39.5423 144.847 37.5788 143.337 36.0632C141.837 34.5371 139.863 33.7715 137.42 33.7715C135.045 33.7715 133.092 34.5423 131.566 36.084C130.05 37.6257 129.295 39.584 129.295 41.959C129.295 44.3652 130.076 46.3444 131.649 47.8965C133.217 49.4382 135.139 50.209 137.42 50.209C139.738 50.209 141.68 49.4382 143.253 47.8965Z" fill="#FF6188"/>
<path d="M157.689 59.4994V0.791016H169.773V28.166H169.898C173.033 25.0306 176.382 23.4577 179.939 23.4577C181.658 23.4577 183.377 23.6868 185.085 24.1452C186.794 24.5931 188.429 25.291 190.002 26.2493C191.57 27.2077 192.84 28.5618 193.814 30.3118C194.799 32.0618 195.294 34.0983 195.294 36.416V59.4994H183.21V39.7077C183.21 37.89 182.627 36.3014 181.46 34.9368C180.304 33.5618 178.799 32.8743 176.939 32.8743C175.117 32.8743 173.465 33.5827 171.981 34.9993C170.507 36.4056 169.773 37.9733 169.773 39.7077V59.4994H157.689Z" fill="#FF6188"/>
<path d="M212.967 55.166C209.686 51.5983 208.051 47.2233 208.051 42.041C208.051 36.8483 209.686 32.4525 212.967 28.8535C216.243 25.2598 220.41 23.4577 225.467 23.4577C230.103 23.4577 233.931 24.9108 236.947 27.8118V0.791016H249.03V59.4994H237.072V55.541H236.947C233.931 58.8639 230.103 60.5202 225.467 60.5202C220.41 60.5202 216.243 58.7389 212.967 55.166ZM223.238 36.0827C221.665 37.6244 220.884 39.6035 220.884 42.0202C220.884 44.4369 221.634 46.4108 223.134 47.9369C224.645 49.4525 226.634 50.2077 229.092 50.2077C231.452 50.2077 233.395 49.4369 234.926 47.8952C236.452 46.3431 237.217 44.3848 237.217 42.0202C237.217 39.6035 236.431 37.6244 234.863 36.0827C233.29 34.541 231.368 33.7702 229.092 33.7702C226.77 33.7702 224.822 34.541 223.238 36.0827Z" fill="#FF6188"/>
<path d="M250.799 59.4994V0.791016H262.882V59.4994H250.799Z" fill="#FF6188"/>
<path d="M300.072 43.6673H274.676C274.676 46.1257 275.473 47.9486 277.072 49.1257C278.665 50.3079 280.395 50.8965 282.259 50.8965C284.217 50.8965 285.764 50.6413 286.905 50.1257C288.04 49.5996 289.342 48.5579 290.801 47.0007L299.53 51.3757C295.889 57.4746 289.832 60.5215 281.363 60.5215C276.082 60.5215 271.556 58.7194 267.78 55.1048C263.999 51.4798 262.113 47.1204 262.113 42.0215C262.113 36.9277 263.999 32.5579 267.78 28.9173C271.556 25.2819 276.082 23.459 281.363 23.459C286.915 23.459 291.436 25.0632 294.926 28.2715C298.41 31.4798 300.155 36.0632 300.155 42.0215C300.155 42.8444 300.124 43.3913 300.072 43.6673ZM275.03 36.9798H288.342C288.061 35.1621 287.342 33.7663 286.176 32.7923C285.02 31.8079 283.535 31.3132 281.717 31.3132C279.717 31.3132 278.118 31.834 276.926 32.8757C275.743 33.9173 275.113 35.2871 275.03 36.9798Z" fill="#FF6188"/>
<path fill-rule="evenodd" clip-rule="evenodd" d="M196.475 6.0095C195.108 7.37633 195.108 9.59241 196.475 10.9592L197.536 12.0199L202.485 16.9697L207.435 12.0199L208.496 10.9592C209.863 9.59242 209.863 7.37634 208.496 6.0095C207.129 4.64266 204.913 4.64268 203.546 6.0095L202.485 7.07016L201.425 6.0095C200.058 4.64266 197.842 4.64268 196.475 6.0095Z" fill="#FF6188"/>
<path fill-rule="evenodd" clip-rule="evenodd" d="M311.912 47.668C310.304 49.2763 310.304 51.8839 311.912 53.4922L318.984 60.5644L318.984 60.5643L318.984 60.5643L326.057 53.4921C327.665 51.8838 327.665 49.2762 326.057 47.6679C324.448 46.0596 321.841 46.0596 320.232 47.6679L318.984 48.9161L317.736 47.668C316.128 46.0597 313.52 46.0597 311.912 47.668Z" fill="#FF6188"/>
<rect x="196.301" y="24" width="12.18" height="35.5" fill="#FF6188"/>
<path fill-rule="evenodd" clip-rule="evenodd" d="M29.926 6.0095C28.5592 7.37634 28.5592 9.59241 29.926 10.9592L35.9365 16.9697L35.9365 16.9696L35.9371 16.9702L41.9475 10.9598C43.3144 9.59294 43.3144 7.37687 41.9475 6.01003C40.5807 4.64319 38.3646 4.64319 36.9978 6.01003L35.9371 7.07076L34.8758 6.0095C33.509 4.64267 31.2929 4.64267 29.926 6.0095Z" fill="#FF6188"/>
<rect x="29.752" y="24" width="12.18" height="35.5" fill="#FF6188"/>
</svg>
