<svg width="500" height="500" viewBox="0 0 500 500" fill="none" xmlns="http://www.w3.org/2000/svg">
<g filter="url(#filter0_d_215_163)">
<path d="M101.559 245.923L101.559 245.923C100.195 247.321 99.5267 248.97 99.5267 250.959C99.5267 252.985 100.199 254.654 101.561 256.06C102.922 257.46 104.496 258.126 106.36 258.126C107.332 258.126 108.233 258.01 109.065 257.784C109.982 257.526 110.534 257.302 110.817 257.135L111.383 256.745L112.818 255.756L113.583 257.321L117.687 265.717L118.234 266.837L117.233 267.58C116.858 267.859 116.371 268.177 115.783 268.534L115.772 268.541L115.76 268.547C114.998 268.991 113.514 269.494 111.528 270.066C109.351 270.702 107.037 271.021 104.589 271.021C99.0574 271.021 94.1758 269.068 90.0072 265.205L90.0042 265.202C85.8264 261.31 83.6934 256.581 83.6934 251.084C83.6934 245.555 85.8231 240.791 89.9994 236.866L101.559 245.923ZM101.559 245.923C102.922 244.525 104.498 243.855 106.36 243.855C108.552 243.855 110.174 244.354 111.351 245.213L112.788 246.26L113.579 244.667L117.683 236.397L118.258 235.238L117.196 234.499L116.03 233.686L116.019 233.679M101.559 245.923L116.019 233.679M116.019 233.679L116.008 233.672M116.019 233.679L116.008 233.672M116.008 233.672C114.977 232.98 113.398 232.377 111.406 231.826C109.3 231.243 107.023 230.959 104.589 230.959C99.0497 230.959 94.1659 232.95 89.9995 236.866L116.008 233.672Z" fill="white" stroke="#00C2FF" stroke-width="3"/>
</g>
<g filter="url(#filter1_d_215_163)">
<path d="M114.917 225.12L114.917 225.12L114.924 225.128C116.618 226.809 118.684 227.667 121.044 227.667C123.405 227.667 125.462 226.808 127.146 225.124C128.837 223.433 129.71 221.367 129.71 219.001C129.71 216.635 128.837 214.579 127.146 212.898C125.466 211.208 123.41 210.334 121.044 210.334C118.677 210.334 116.611 211.208 114.92 212.898C113.237 214.582 112.377 216.639 112.377 219.001C112.377 221.361 113.235 223.426 114.917 225.12ZM114.835 231.98H113.335V233.48V268.501V270.001H114.835H126.919H128.419V268.501V233.48V231.98H126.919H114.835Z" fill="white" stroke="#00C2FF" stroke-width="3"/>
</g>
<g filter="url(#filter2_d_215_163)">
<path d="M127.533 268.501V270.001H129.033H141.117H142.617V268.501V248.709C142.617 247.456 143.127 246.262 144.36 245.086L144.36 245.086C145.604 243.899 146.896 243.376 148.283 243.376C149.717 243.376 150.796 243.88 151.656 244.904L151.656 244.904L151.664 244.913C152.596 246.003 153.054 247.244 153.054 248.709V268.501V270.001H154.554H166.637H168.137V268.501V245.417C168.137 242.882 167.595 240.586 166.467 238.581C165.379 236.627 163.935 235.075 162.128 233.971L162.126 233.97C160.434 232.939 158.666 232.183 156.814 231.697C154.983 231.206 153.135 230.959 151.283 230.959C148.193 230.959 145.3 232.011 142.617 233.995V233.48V231.98H141.117H129.033H127.533V233.48V268.501Z" fill="white" stroke="#00C2FF" stroke-width="3"/>
</g>
<g filter="url(#filter3_d_215_163)">
<path d="M203.154 254.167H204.397L204.628 252.945C204.709 252.514 204.737 251.837 204.737 251.021C204.737 244.759 202.892 239.73 199.024 236.168L199.023 236.167C195.21 232.662 190.305 230.959 184.445 230.959C178.778 230.959 173.879 232.931 169.822 236.837L169.822 236.837C165.756 240.751 163.695 245.508 163.695 251.021C163.695 256.541 165.756 261.288 169.824 265.188L169.825 265.188C173.884 269.074 178.783 271.021 184.445 271.021C193.322 271.021 199.932 267.791 203.9 261.144L204.728 259.758L203.284 259.035L194.555 254.66L193.573 254.167H203.154ZM179.391 254.167H193.545L192.788 254.975C191.387 256.472 190.242 257.353 189.363 257.762C188.496 258.152 187.191 258.396 185.341 258.396C183.818 258.396 182.399 257.924 181.047 256.921L181.043 256.918C180.215 256.308 179.637 255.433 179.391 254.167ZM188.285 242.934L188.291 242.939L188.297 242.944C188.766 243.336 189.156 243.838 189.448 244.48H179.937C180.171 243.904 180.526 243.419 180.997 243.003C181.85 242.26 183.065 241.813 184.799 241.813C186.332 241.813 187.45 242.223 188.285 242.934Z" fill="white" stroke="#00C2FF" stroke-width="3"/>
</g>
<g filter="url(#filter4_d_215_163)">
<path d="M239.63 236.799L239.628 236.798C236.05 232.907 231.476 230.959 226.024 230.959C222.158 230.959 218.774 232.031 215.92 234.171V233.48V231.98H214.42H202.482H200.982V233.48V286.251V287.751H202.482H214.566H216.066V286.251V268.263C218.902 270.111 222.239 271.021 226.024 271.021C231.48 271.021 236.055 269.06 239.633 265.136L239.633 265.136C243.178 261.247 244.941 256.489 244.941 250.959C244.941 245.419 243.178 240.669 239.63 236.799ZM227.267 246.115L227.267 246.115L227.274 246.122C228.469 247.321 229.107 248.886 229.107 250.959C229.107 253.002 228.456 254.584 227.201 255.828C225.924 257.078 224.366 257.709 222.42 257.709C220.517 257.709 218.977 257.082 217.702 255.828C216.444 254.586 215.795 253.005 215.795 250.959C215.795 248.935 216.424 247.369 217.634 246.137C218.849 244.91 220.404 244.271 222.42 244.271C224.522 244.271 226.089 244.916 227.267 246.115Z" fill="white" stroke="#00C2FF" stroke-width="3"/>
</g>
<g filter="url(#filter5_d_215_163)">
<path d="M241.189 268.499V269.999H242.689H254.773H256.273V268.499V248.708C256.273 247.454 256.784 246.261 258.017 245.085L258.017 245.084C259.261 243.897 260.552 243.374 261.939 243.374C263.373 243.374 264.452 243.879 265.312 244.902L265.312 244.902L265.32 244.912C266.252 246.001 266.71 247.243 266.71 248.708V268.499V269.999H268.21H280.294H281.794V268.499V245.416C281.794 242.881 281.251 240.585 280.123 238.579C279.035 236.626 277.591 235.074 275.784 233.97L275.782 233.968C274.09 232.937 272.322 232.181 270.47 231.695C268.639 231.205 266.791 230.958 264.939 230.958C261.849 230.958 258.956 232.009 256.273 233.993V209.791V208.291H254.773H242.689H241.189V209.791V268.499Z" fill="white" stroke="#00C2FF" stroke-width="3"/>
</g>
<g filter="url(#filter6_d_215_163)">
<path d="M281.475 225.12L281.475 225.12L281.483 225.128C283.177 226.809 285.242 227.667 287.602 227.667C289.964 227.667 292.021 226.808 293.705 225.124C295.395 223.433 296.269 221.367 296.269 219.001C296.269 216.635 295.395 214.579 293.705 212.898C292.024 211.208 289.968 210.334 287.602 210.334C285.236 210.334 283.17 211.208 281.479 212.898C279.795 214.582 278.936 216.639 278.936 219.001C278.936 221.361 279.794 223.426 281.475 225.12ZM281.394 231.98H279.894V233.48V268.501V270.001H281.394H293.477H294.977V268.501V233.48V231.98H293.477H281.394Z" fill="white" stroke="#00C2FF" stroke-width="3"/>
</g>
<g filter="url(#filter7_d_215_163)">
<path d="M321.947 208.291H320.447V209.791V233.712C317.599 231.868 314.254 230.958 310.467 230.958C305.006 230.958 300.431 232.924 296.859 236.843C293.307 240.738 291.551 245.503 291.551 251.041C291.551 256.57 293.308 261.315 296.863 265.181C300.437 269.079 305.012 271.02 310.467 271.02C314.324 271.02 317.71 269.954 320.572 267.819V268.499V269.999H322.072H334.03H335.53V268.499V209.791V208.291H334.03H321.947ZM307.384 251.02C307.384 248.962 308.034 247.385 309.286 246.156C310.574 244.902 312.14 244.27 314.092 244.27C315.99 244.27 317.53 244.897 318.813 246.154C320.064 247.384 320.717 248.964 320.717 251.02C320.717 253.026 320.083 254.594 318.859 255.841C317.635 257.072 316.088 257.708 314.092 257.708C311.968 257.708 310.385 257.068 309.2 255.882C308.015 254.674 307.384 253.097 307.384 251.02Z" fill="white" stroke="#00C2FF" stroke-width="3"/>
</g>
<g filter="url(#filter8_d_215_163)">
<path d="M334.299 268.499V269.999H335.799H347.882H349.382V268.499V209.791V208.291H347.882H335.799H334.299V209.791V268.499Z" fill="white" stroke="#00C2FF" stroke-width="3"/>
</g>
<g filter="url(#filter9_d_215_163)">
<path d="M385.072 254.167H386.315L386.546 252.945C386.627 252.514 386.655 251.837 386.655 251.021C386.655 244.759 384.81 239.73 380.942 236.168L380.941 236.167C377.128 232.662 372.223 230.959 366.363 230.959C360.696 230.959 355.797 232.931 351.74 236.837L351.74 236.837C347.674 240.751 345.613 245.508 345.613 251.021C345.613 256.541 347.674 261.288 351.742 265.188L351.743 265.188C355.802 269.074 360.701 271.021 366.363 271.021C375.24 271.021 381.85 267.791 385.818 261.144L386.646 259.758L385.202 259.035L376.473 254.66L375.491 254.167H385.072ZM361.309 254.167H375.463L374.706 254.975C373.305 256.472 372.16 257.353 371.281 257.762C370.414 258.152 369.109 258.396 367.259 258.396C365.736 258.396 364.317 257.924 362.965 256.921L362.961 256.918C362.133 256.308 361.555 255.433 361.309 254.167ZM370.203 242.934L370.209 242.939L370.214 242.944C370.684 243.336 371.074 243.838 371.366 244.48H361.855C362.089 243.904 362.444 243.419 362.915 243.003C363.768 242.26 364.983 241.813 366.717 241.813C368.25 241.813 369.368 242.223 370.203 242.934Z" fill="white" stroke="#00C2FF" stroke-width="3"/>
</g>
<g filter="url(#filter10_d_215_163)">
<path d="M411.004 268.319L411.004 268.319L411.011 268.311C412.815 266.507 413.742 264.294 413.742 261.751C413.742 259.166 412.823 256.927 411.008 255.125C409.195 253.318 406.96 252.396 404.388 252.396C401.845 252.396 399.631 253.324 397.827 255.127C396.022 256.932 395.117 259.172 395.117 261.751C395.117 264.288 396.03 266.501 397.824 268.308L397.824 268.308L397.833 268.317C399.637 270.102 401.848 271.021 404.388 271.021C406.957 271.021 409.19 270.108 411.004 268.319Z" fill="white" stroke="#00C2FF" stroke-width="3"/>
</g>
<defs>
<filter id="filter0_d_215_163" x="52.1934" y="199.459" width="97.9824" height="103.062" filterUnits="userSpaceOnUse" color-interpolation-filters="sRGB">
<feFlood flood-opacity="0" result="BackgroundImageFix"/>
<feColorMatrix in="SourceAlpha" type="matrix" values="0 0 0 0 0 0 0 0 0 0 0 0 0 0 0 0 0 0 127 0" result="hardAlpha"/>
<feOffset/>
<feGaussianBlur stdDeviation="15"/>
<feComposite in2="hardAlpha" operator="out"/>
<feColorMatrix type="matrix" values="0 0 0 0 0.00392157 0 0 0 0 0.760784 0 0 0 0 1 0 0 0 1 0"/>
<feBlend mode="normal" in2="BackgroundImageFix" result="effect1_dropShadow_215_163"/>
<feBlend mode="normal" in="SourceGraphic" in2="effect1_dropShadow_215_163" result="shape"/>
</filter>
<filter id="filter1_d_215_163" x="80.877" y="178.834" width="80.334" height="122.666" filterUnits="userSpaceOnUse" color-interpolation-filters="sRGB">
<feFlood flood-opacity="0" result="BackgroundImageFix"/>
<feColorMatrix in="SourceAlpha" type="matrix" values="0 0 0 0 0 0 0 0 0 0 0 0 0 0 0 0 0 0 127 0" result="hardAlpha"/>
<feOffset/>
<feGaussianBlur stdDeviation="15"/>
<feComposite in2="hardAlpha" operator="out"/>
<feColorMatrix type="matrix" values="0 0 0 0 0.00392157 0 0 0 0 0.760784 0 0 0 0 1 0 0 0 1 0"/>
<feBlend mode="normal" in2="BackgroundImageFix" result="effect1_dropShadow_215_163"/>
<feBlend mode="normal" in="SourceGraphic" in2="effect1_dropShadow_215_163" result="shape"/>
</filter>
<filter id="filter2_d_215_163" x="96.0332" y="199.459" width="103.604" height="102.041" filterUnits="userSpaceOnUse" color-interpolation-filters="sRGB">
<feFlood flood-opacity="0" result="BackgroundImageFix"/>
<feColorMatrix in="SourceAlpha" type="matrix" values="0 0 0 0 0 0 0 0 0 0 0 0 0 0 0 0 0 0 127 0" result="hardAlpha"/>
<feOffset/>
<feGaussianBlur stdDeviation="15"/>
<feComposite in2="hardAlpha" operator="out"/>
<feColorMatrix type="matrix" values="0 0 0 0 0.00392157 0 0 0 0 0.760784 0 0 0 0 1 0 0 0 1 0"/>
<feBlend mode="normal" in2="BackgroundImageFix" result="effect1_dropShadow_215_163"/>
<feBlend mode="normal" in="SourceGraphic" in2="effect1_dropShadow_215_163" result="shape"/>
</filter>
<filter id="filter3_d_215_163" x="132.195" y="199.459" width="104.648" height="103.062" filterUnits="userSpaceOnUse" color-interpolation-filters="sRGB">
<feFlood flood-opacity="0" result="BackgroundImageFix"/>
<feColorMatrix in="SourceAlpha" type="matrix" values="0 0 0 0 0 0 0 0 0 0 0 0 0 0 0 0 0 0 127 0" result="hardAlpha"/>
<feOffset/>
<feGaussianBlur stdDeviation="15"/>
<feComposite in2="hardAlpha" operator="out"/>
<feColorMatrix type="matrix" values="0 0 0 0 0.00392157 0 0 0 0 0.760784 0 0 0 0 1 0 0 0 1 0"/>
<feBlend mode="normal" in2="BackgroundImageFix" result="effect1_dropShadow_215_163"/>
<feBlend mode="normal" in="SourceGraphic" in2="effect1_dropShadow_215_163" result="shape"/>
</filter>
<filter id="filter4_d_215_163" x="169.482" y="199.459" width="106.959" height="119.791" filterUnits="userSpaceOnUse" color-interpolation-filters="sRGB">
<feFlood flood-opacity="0" result="BackgroundImageFix"/>
<feColorMatrix in="SourceAlpha" type="matrix" values="0 0 0 0 0 0 0 0 0 0 0 0 0 0 0 0 0 0 127 0" result="hardAlpha"/>
<feOffset/>
<feGaussianBlur stdDeviation="15"/>
<feComposite in2="hardAlpha" operator="out"/>
<feColorMatrix type="matrix" values="0 0 0 0 0.00392157 0 0 0 0 0.760784 0 0 0 0 1 0 0 0 1 0"/>
<feBlend mode="normal" in2="BackgroundImageFix" result="effect1_dropShadow_215_163"/>
<feBlend mode="normal" in="SourceGraphic" in2="effect1_dropShadow_215_163" result="shape"/>
</filter>
<filter id="filter5_d_215_163" x="209.689" y="176.791" width="103.604" height="124.709" filterUnits="userSpaceOnUse" color-interpolation-filters="sRGB">
<feFlood flood-opacity="0" result="BackgroundImageFix"/>
<feColorMatrix in="SourceAlpha" type="matrix" values="0 0 0 0 0 0 0 0 0 0 0 0 0 0 0 0 0 0 127 0" result="hardAlpha"/>
<feOffset/>
<feGaussianBlur stdDeviation="15"/>
<feComposite in2="hardAlpha" operator="out"/>
<feColorMatrix type="matrix" values="0 0 0 0 0.00392157 0 0 0 0 0.760784 0 0 0 0 1 0 0 0 1 0"/>
<feBlend mode="normal" in2="BackgroundImageFix" result="effect1_dropShadow_215_163"/>
<feBlend mode="normal" in="SourceGraphic" in2="effect1_dropShadow_215_163" result="shape"/>
</filter>
<filter id="filter6_d_215_163" x="247.436" y="178.834" width="80.334" height="122.666" filterUnits="userSpaceOnUse" color-interpolation-filters="sRGB">
<feFlood flood-opacity="0" result="BackgroundImageFix"/>
<feColorMatrix in="SourceAlpha" type="matrix" values="0 0 0 0 0 0 0 0 0 0 0 0 0 0 0 0 0 0 127 0" result="hardAlpha"/>
<feOffset/>
<feGaussianBlur stdDeviation="15"/>
<feComposite in2="hardAlpha" operator="out"/>
<feColorMatrix type="matrix" values="0 0 0 0 0.00392157 0 0 0 0 0.760784 0 0 0 0 1 0 0 0 1 0"/>
<feBlend mode="normal" in2="BackgroundImageFix" result="effect1_dropShadow_215_163"/>
<feBlend mode="normal" in="SourceGraphic" in2="effect1_dropShadow_215_163" result="shape"/>
</filter>
<filter id="filter7_d_215_163" x="260.051" y="176.791" width="106.979" height="125.729" filterUnits="userSpaceOnUse" color-interpolation-filters="sRGB">
<feFlood flood-opacity="0" result="BackgroundImageFix"/>
<feColorMatrix in="SourceAlpha" type="matrix" values="0 0 0 0 0 0 0 0 0 0 0 0 0 0 0 0 0 0 127 0" result="hardAlpha"/>
<feOffset/>
<feGaussianBlur stdDeviation="15"/>
<feComposite in2="hardAlpha" operator="out"/>
<feColorMatrix type="matrix" values="0 0 0 0 0.00392157 0 0 0 0 0.760784 0 0 0 0 1 0 0 0 1 0"/>
<feBlend mode="normal" in2="BackgroundImageFix" result="effect1_dropShadow_215_163"/>
<feBlend mode="normal" in="SourceGraphic" in2="effect1_dropShadow_215_163" result="shape"/>
</filter>
<filter id="filter8_d_215_163" x="302.799" y="176.791" width="78.084" height="124.709" filterUnits="userSpaceOnUse" color-interpolation-filters="sRGB">
<feFlood flood-opacity="0" result="BackgroundImageFix"/>
<feColorMatrix in="SourceAlpha" type="matrix" values="0 0 0 0 0 0 0 0 0 0 0 0 0 0 0 0 0 0 127 0" result="hardAlpha"/>
<feOffset/>
<feGaussianBlur stdDeviation="15"/>
<feComposite in2="hardAlpha" operator="out"/>
<feColorMatrix type="matrix" values="0 0 0 0 0.00392157 0 0 0 0 0.760784 0 0 0 0 1 0 0 0 1 0"/>
<feBlend mode="normal" in2="BackgroundImageFix" result="effect1_dropShadow_215_163"/>
<feBlend mode="normal" in="SourceGraphic" in2="effect1_dropShadow_215_163" result="shape"/>
</filter>
<filter id="filter9_d_215_163" x="314.113" y="199.459" width="104.648" height="103.062" filterUnits="userSpaceOnUse" color-interpolation-filters="sRGB">
<feFlood flood-opacity="0" result="BackgroundImageFix"/>
<feColorMatrix in="SourceAlpha" type="matrix" values="0 0 0 0 0 0 0 0 0 0 0 0 0 0 0 0 0 0 127 0" result="hardAlpha"/>
<feOffset/>
<feGaussianBlur stdDeviation="15"/>
<feComposite in2="hardAlpha" operator="out"/>
<feColorMatrix type="matrix" values="0 0 0 0 0.00392157 0 0 0 0 0.760784 0 0 0 0 1 0 0 0 1 0"/>
<feBlend mode="normal" in2="BackgroundImageFix" result="effect1_dropShadow_215_163"/>
<feBlend mode="normal" in="SourceGraphic" in2="effect1_dropShadow_215_163" result="shape"/>
</filter>
<filter id="filter10_d_215_163" x="363.617" y="220.896" width="81.625" height="81.625" filterUnits="userSpaceOnUse" color-interpolation-filters="sRGB">
<feFlood flood-opacity="0" result="BackgroundImageFix"/>
<feColorMatrix in="SourceAlpha" type="matrix" values="0 0 0 0 0 0 0 0 0 0 0 0 0 0 0 0 0 0 127 0" result="hardAlpha"/>
<feOffset/>
<feGaussianBlur stdDeviation="15"/>
<feComposite in2="hardAlpha" operator="out"/>
<feColorMatrix type="matrix" values="0 0 0 0 0.00392157 0 0 0 0 0.760784 0 0 0 0 1 0 0 0 1 0"/>
<feBlend mode="normal" in2="BackgroundImageFix" result="effect1_dropShadow_215_163"/>
<feBlend mode="normal" in="SourceGraphic" in2="effect1_dropShadow_215_163" result="shape"/>
</filter>
</defs>
</svg>
