<svg xmlns="http://www.w3.org/2000/svg" xmlns:xlink="http://www.w3.org/1999/xlink" width="500" zoomAndPan="magnify" viewBox="0 0 375 374.999991" height="500" preserveAspectRatio="xMidYMid meet" version="1.0"><defs><clipPath id="64fcc647bf"><path d="M 231 225 L 257.914062 225 L 257.914062 250 L 231 250 Z M 231 225 " clip-rule="nonzero"/></clipPath><clipPath id="35f59e3b3c"><path d="M 116.914062 122.207031 L 248 122.207031 L 248 252.707031 L 116.914062 252.707031 Z M 116.914062 122.207031 " clip-rule="nonzero"/></clipPath></defs><g clip-path="url(#64fcc647bf)"><path fill="#161616" d="M 235.542969 225.203125 C 235.542969 225.203125 239.992188 235.71875 247.542969 235.40625 C 255.09375 235.0625 258.03125 232.355469 258.03125 232.355469 L 255.722656 249.855469 C 255.722656 249.855469 233.238281 250.480469 231.699219 230.132812 C 231.414062 226.257812 235.542969 225.203125 235.542969 225.203125 Z M 235.542969 225.203125 " fill-opacity="1" fill-rule="nonzero"/></g><path fill="#161616" d="M 227.109375 187.5 C 227.109375 188.96875 227.039062 190.433594 226.894531 191.894531 C 226.75 193.359375 226.535156 194.808594 226.246094 196.25 C 225.960938 197.691406 225.605469 199.113281 225.175781 200.519531 C 224.75 201.925781 224.257812 203.308594 223.695312 204.664062 C 223.132812 206.023438 222.503906 207.347656 221.8125 208.644531 C 221.121094 209.941406 220.367188 211.199219 219.550781 212.421875 C 218.734375 213.640625 217.859375 214.820312 216.925781 215.957031 C 215.996094 217.089844 215.007812 218.179688 213.972656 219.21875 C 212.933594 220.257812 211.84375 221.242188 210.710938 222.171875 C 209.574219 223.105469 208.394531 223.980469 207.171875 224.796875 C 205.953125 225.613281 204.691406 226.367188 203.398438 227.058594 C 202.101562 227.75 200.773438 228.378906 199.417969 228.941406 C 198.0625 229.503906 196.679688 229.996094 195.273438 230.425781 C 193.867188 230.851562 192.445312 231.207031 191.003906 231.492188 C 189.5625 231.78125 188.109375 231.996094 186.648438 232.140625 C 185.1875 232.285156 183.722656 232.355469 182.25 232.355469 C 180.78125 232.355469 179.316406 232.285156 177.855469 232.140625 C 176.394531 231.996094 174.941406 231.78125 173.5 231.492188 C 172.058594 231.207031 170.636719 230.851562 169.230469 230.425781 C 167.824219 229.996094 166.441406 229.503906 165.085938 228.941406 C 163.726562 228.378906 162.402344 227.75 161.105469 227.058594 C 159.8125 226.367188 158.550781 225.613281 157.332031 224.796875 C 156.109375 223.980469 154.929688 223.105469 153.792969 222.171875 C 152.660156 221.242188 151.570312 220.257812 150.53125 219.21875 C 149.492188 218.179688 148.507812 217.089844 147.578125 215.957031 C 146.644531 214.820312 145.769531 213.640625 144.953125 212.421875 C 144.136719 211.199219 143.382812 209.941406 142.691406 208.644531 C 142 207.347656 141.371094 206.023438 140.808594 204.664062 C 140.246094 203.308594 139.753906 201.925781 139.324219 200.519531 C 138.898438 199.113281 138.542969 197.691406 138.257812 196.25 C 137.96875 194.808594 137.753906 193.359375 137.609375 191.894531 C 137.464844 190.433594 137.394531 188.96875 137.394531 187.5 C 137.394531 186.03125 137.464844 184.5625 137.609375 183.101562 C 137.753906 181.640625 137.96875 180.1875 138.257812 178.746094 C 138.542969 177.304688 138.898438 175.882812 139.324219 174.476562 C 139.753906 173.070312 140.246094 171.691406 140.808594 170.332031 C 141.371094 168.976562 142 167.648438 142.691406 166.351562 C 143.382812 165.058594 144.136719 163.796875 144.953125 162.578125 C 145.769531 161.355469 146.644531 160.175781 147.578125 159.042969 C 148.507812 157.90625 149.492188 156.820312 150.53125 155.78125 C 151.570312 154.742188 152.660156 153.753906 153.792969 152.824219 C 154.929688 151.890625 156.109375 151.015625 157.332031 150.199219 C 158.550781 149.386719 159.8125 148.628906 161.105469 147.9375 C 162.402344 147.246094 163.726562 146.617188 165.085938 146.054688 C 166.441406 145.492188 167.824219 145 169.230469 144.574219 C 170.636719 144.144531 172.058594 143.789062 173.5 143.503906 C 174.941406 143.214844 176.394531 143 177.855469 142.855469 C 179.316406 142.714844 180.78125 142.640625 182.25 142.640625 C 183.722656 142.640625 185.1875 142.714844 186.648438 142.855469 C 188.109375 143 189.5625 143.214844 191.003906 143.503906 C 192.445312 143.789062 193.867188 144.144531 195.273438 144.574219 C 196.679688 145 198.0625 145.492188 199.417969 146.054688 C 200.773438 146.617188 202.101562 147.246094 203.398438 147.9375 C 204.691406 148.628906 205.953125 149.386719 207.171875 150.199219 C 208.394531 151.015625 209.574219 151.890625 210.710938 152.824219 C 211.84375 153.753906 212.933594 154.742188 213.972656 155.78125 C 215.007812 156.820312 215.996094 157.90625 216.925781 159.042969 C 217.859375 160.175781 218.734375 161.355469 219.550781 162.578125 C 220.367188 163.796875 221.121094 165.058594 221.8125 166.351562 C 222.503906 167.648438 223.132812 168.976562 223.695312 170.332031 C 224.257812 171.691406 224.75 173.070312 225.175781 174.476562 C 225.605469 175.882812 225.960938 177.304688 226.246094 178.746094 C 226.535156 180.1875 226.75 181.640625 226.894531 183.101562 C 227.039062 184.5625 227.109375 186.03125 227.109375 187.5 Z M 227.109375 187.5 " fill-opacity="1" fill-rule="nonzero"/><g clip-path="url(#35f59e3b3c)"><path fill="#878787" d="M 182.25 122.207031 C 146.199219 122.207031 116.960938 151.449219 116.960938 187.5 C 116.960938 223.550781 146.199219 252.789062 182.25 252.789062 C 218.304688 252.789062 247.542969 223.550781 247.542969 187.5 C 247.542969 151.449219 218.304688 122.207031 182.25 122.207031 Z M 182.25 133.804688 C 192.140625 133.804688 200.121094 141.816406 200.121094 151.675781 C 200.121094 161.535156 192.113281 169.542969 182.25 169.542969 C 172.390625 169.542969 164.382812 161.535156 164.382812 151.675781 C 164.382812 141.816406 172.363281 133.804688 182.25 133.804688 Z M 193.90625 185.417969 C 193.90625 186.644531 192.9375 187.613281 191.714844 187.613281 C 190.488281 187.613281 189.519531 186.644531 189.519531 185.417969 C 189.519531 184.191406 190.488281 183.222656 191.714844 183.222656 C 192.9375 183.222656 193.90625 184.191406 193.90625 185.417969 Z M 184.445312 175.929688 C 184.445312 177.152344 183.476562 178.121094 182.25 178.121094 C 181.027344 178.121094 180.058594 177.152344 180.058594 175.929688 C 180.058594 174.703125 181.027344 173.734375 182.25 173.734375 C 183.449219 173.734375 184.445312 174.730469 184.445312 175.929688 Z M 174.957031 185.417969 C 174.957031 186.644531 173.988281 187.613281 172.761719 187.613281 C 171.535156 187.613281 170.566406 186.644531 170.566406 185.417969 C 170.566406 184.191406 171.535156 183.222656 172.761719 183.222656 C 173.988281 183.222656 174.957031 184.191406 174.957031 185.417969 Z M 130.441406 177.4375 C 130.441406 167.578125 138.449219 159.570312 148.308594 159.570312 C 158.171875 159.570312 166.179688 167.578125 166.179688 177.4375 C 166.179688 187.300781 158.171875 195.308594 148.308594 195.308594 C 138.449219 195.308594 130.441406 187.328125 130.441406 177.4375 Z M 160.761719 234.09375 C 150.902344 234.09375 142.894531 226.085938 142.894531 216.226562 C 142.894531 206.363281 150.902344 198.355469 160.761719 198.355469 C 170.652344 198.355469 178.632812 206.363281 178.632812 216.226562 C 178.632812 226.085938 170.625 234.09375 160.761719 234.09375 Z M 177.265625 185.417969 C 177.265625 182.652344 179.488281 180.429688 182.25 180.429688 C 185.015625 180.429688 187.238281 182.652344 187.238281 185.417969 C 187.238281 188.183594 185.015625 190.40625 182.25 190.40625 C 179.488281 190.40625 177.265625 188.152344 177.265625 185.417969 Z M 182.25 197.074219 C 181.027344 197.074219 180.058594 196.105469 180.058594 194.878906 C 180.058594 193.65625 181.027344 192.683594 182.25 192.683594 C 183.476562 192.683594 184.445312 193.65625 184.445312 194.878906 C 184.445312 196.105469 183.449219 197.074219 182.25 197.074219 Z M 203.398438 234.09375 C 193.539062 234.09375 185.527344 226.085938 185.527344 216.226562 C 185.527344 206.363281 193.539062 198.355469 203.398438 198.355469 C 213.289062 198.355469 221.265625 206.363281 221.265625 216.226562 C 221.296875 226.085938 213.289062 234.09375 203.398438 234.09375 Z M 216.164062 195.335938 C 206.304688 195.335938 198.296875 187.328125 198.296875 177.46875 C 198.296875 167.605469 206.304688 159.570312 216.164062 159.570312 C 226.054688 159.570312 234.035156 167.578125 234.035156 177.4375 C 234.035156 187.300781 226.054688 195.335938 216.164062 195.335938 Z M 216.164062 195.335938 " fill-opacity="1" fill-rule="nonzero"/></g><path fill="#878787" d="M 182.679688 247.601562 C 149.535156 247.601562 122.546875 220.644531 122.546875 187.46875 C 122.546875 154.324219 149.507812 127.335938 182.679688 127.335938 C 215.824219 127.335938 242.8125 154.296875 242.8125 187.46875 C 242.785156 220.644531 215.824219 247.601562 182.679688 247.601562 Z M 182.679688 130.214844 C 151.101562 130.214844 125.398438 155.921875 125.398438 187.5 C 125.398438 219.074219 151.101562 244.78125 182.679688 244.78125 C 214.257812 244.78125 239.960938 219.074219 239.960938 187.5 C 239.933594 155.921875 214.257812 130.214844 182.679688 130.214844 Z M 182.679688 130.214844 " fill-opacity="1" fill-rule="nonzero"/></svg>