<svg xmlns="http://www.w3.org/2000/svg" xmlns:xlink="http://www.w3.org/1999/xlink" width="500" zoomAndPan="magnify" viewBox="0 0 375 374.999991" height="500" preserveAspectRatio="xMidYMid meet" version="1.0"><defs><g/></defs><g fill="#ffffff" fill-opacity="1"><g transform="translate(62.723569, 201.374987)"><g><path d="M 17.046875 -19.609375 C 15.335938 -19.609375 13.867188 -18.976562 12.640625 -17.71875 C 11.410156 -16.457031 10.796875 -14.9375 10.796875 -13.15625 C 10.796875 -11.351562 11.410156 -9.816406 12.640625 -8.546875 C 13.867188 -7.285156 15.335938 -6.65625 17.046875 -6.65625 C 17.867188 -6.65625 18.644531 -6.753906 19.375 -6.953125 C 20.113281 -7.160156 20.65625 -7.367188 21 -7.578125 L 21.453125 -7.890625 L 24.53125 -1.59375 C 24.289062 -1.414062 23.957031 -1.195312 23.53125 -0.9375 C 23.101562 -0.6875 22.128906 -0.34375 20.609375 0.09375 C 19.085938 0.539062 17.457031 0.765625 15.71875 0.765625 C 11.863281 0.765625 8.472656 -0.585938 5.546875 -3.296875 C 2.628906 -6.015625 1.171875 -9.269531 1.171875 -13.0625 C 1.171875 -16.882812 2.628906 -20.164062 5.546875 -22.90625 C 8.472656 -25.65625 11.863281 -27.03125 15.71875 -27.03125 C 17.457031 -27.03125 19.0625 -26.828125 20.53125 -26.421875 C 22 -26.015625 23.039062 -25.601562 23.65625 -25.1875 L 24.53125 -24.578125 L 21.453125 -18.375 C 20.328125 -19.195312 18.859375 -19.609375 17.046875 -19.609375 Z M 17.046875 -19.609375 "/></g></g></g><g fill="#ffffff" fill-opacity="1"><g transform="translate(83.048269, 201.374987)"><g><path d="M 3.9375 -40.90625 C 5 -41.96875 6.265625 -42.5 7.734375 -42.5 C 9.203125 -42.5 10.460938 -41.96875 11.515625 -40.90625 C 12.578125 -39.851562 13.109375 -38.59375 13.109375 -37.125 C 13.109375 -35.65625 12.578125 -34.390625 11.515625 -33.328125 C 10.460938 -32.273438 9.203125 -31.75 7.734375 -31.75 C 6.265625 -31.75 5 -32.273438 3.9375 -33.328125 C 2.882812 -34.390625 2.359375 -35.65625 2.359375 -37.125 C 2.359375 -38.59375 2.882812 -39.851562 3.9375 -40.90625 Z M 3.078125 -26.265625 L 3.078125 0 L 12.140625 0 L 12.140625 -26.265625 Z M 3.078125 -26.265625 "/></g></g></g><g fill="#ffffff" fill-opacity="1"><g transform="translate(93.696314, 201.374987)"><g><path d="M 3.078125 0 L 3.078125 -26.265625 L 12.140625 -26.265625 L 12.140625 -23.5 L 12.234375 -23.5 C 14.585938 -25.851562 17.097656 -27.03125 19.765625 -27.03125 C 21.054688 -27.03125 22.34375 -26.859375 23.625 -26.515625 C 24.90625 -26.179688 26.132812 -25.65625 27.3125 -24.9375 C 28.488281 -24.21875 29.441406 -23.203125 30.171875 -21.890625 C 30.910156 -20.578125 31.28125 -19.050781 31.28125 -17.3125 L 31.28125 0 L 22.21875 0 L 22.21875 -14.84375 C 22.21875 -16.207031 21.78125 -17.398438 20.90625 -18.421875 C 20.039062 -19.453125 18.910156 -19.96875 17.515625 -19.96875 C 16.148438 -19.96875 14.910156 -19.4375 13.796875 -18.375 C 12.691406 -17.320312 12.140625 -16.144531 12.140625 -14.84375 L 12.140625 0 Z M 3.078125 0 "/></g></g></g><g fill="#ffffff" fill-opacity="1"><g transform="translate(122.724886, 201.374987)"><g><path d="M 29.640625 -11.875 L 10.59375 -11.875 C 10.59375 -10.03125 11.191406 -8.664062 12.390625 -7.78125 C 13.585938 -6.894531 14.882812 -6.453125 16.28125 -6.453125 C 17.75 -6.453125 18.910156 -6.644531 19.765625 -7.03125 C 20.617188 -7.425781 21.59375 -8.207031 22.6875 -9.375 L 29.234375 -6.09375 C 26.503906 -1.519531 21.960938 0.765625 15.609375 0.765625 C 11.648438 0.765625 8.253906 -0.585938 5.421875 -3.296875 C 2.585938 -6.015625 1.171875 -9.285156 1.171875 -13.109375 C 1.171875 -16.929688 2.585938 -20.207031 5.421875 -22.9375 C 8.253906 -25.664062 11.648438 -27.03125 15.609375 -27.03125 C 19.773438 -27.03125 23.164062 -25.828125 25.78125 -23.421875 C 28.394531 -21.015625 29.703125 -17.578125 29.703125 -13.109375 C 29.703125 -12.492188 29.679688 -12.082031 29.640625 -11.875 Z M 10.859375 -16.890625 L 20.84375 -16.890625 C 20.632812 -18.253906 20.09375 -19.300781 19.21875 -20.03125 C 18.351562 -20.769531 17.238281 -21.140625 15.875 -21.140625 C 14.375 -21.140625 13.175781 -20.75 12.28125 -19.96875 C 11.394531 -19.1875 10.921875 -18.160156 10.859375 -16.890625 Z M 10.859375 -16.890625 "/></g></g></g><g fill="#ffffff" fill-opacity="1"><g transform="translate(148.7839, 201.374987)"><g><path d="M 30.109375 -23.015625 C 32.566406 -20.335938 33.796875 -17.050781 33.796875 -13.15625 C 33.796875 -9.269531 32.566406 -5.976562 30.109375 -3.28125 C 27.648438 -0.582031 24.523438 0.765625 20.734375 0.765625 C 17.253906 0.765625 14.390625 -0.328125 12.140625 -2.515625 L 12.140625 13.3125 L 3.078125 13.3125 L 3.078125 -26.265625 L 12.03125 -26.265625 L 12.03125 -23.296875 L 12.140625 -23.296875 C 14.390625 -25.785156 17.253906 -27.03125 20.734375 -27.03125 C 24.523438 -27.03125 27.648438 -25.691406 30.109375 -23.015625 Z M 22.40625 -8.703125 C 23.582031 -9.867188 24.171875 -11.351562 24.171875 -13.15625 C 24.171875 -14.96875 23.601562 -16.441406 22.46875 -17.578125 C 21.34375 -18.722656 19.863281 -19.296875 18.03125 -19.296875 C 16.25 -19.296875 14.785156 -18.71875 13.640625 -17.5625 C 12.503906 -16.40625 11.9375 -14.9375 11.9375 -13.15625 C 11.9375 -11.351562 12.523438 -9.867188 13.703125 -8.703125 C 14.878906 -7.546875 16.320312 -6.96875 18.03125 -6.96875 C 19.769531 -6.96875 21.226562 -7.546875 22.40625 -8.703125 Z M 22.40625 -8.703125 "/></g></g></g><g fill="#ffffff" fill-opacity="1"><g transform="translate(178.938862, 201.374987)"><g><path d="M 3.078125 0 L 3.078125 -44.03125 L 12.140625 -44.03125 L 12.140625 -23.5 L 12.234375 -23.5 C 14.585938 -25.851562 17.097656 -27.03125 19.765625 -27.03125 C 21.054688 -27.03125 22.34375 -26.859375 23.625 -26.515625 C 24.90625 -26.179688 26.132812 -25.65625 27.3125 -24.9375 C 28.488281 -24.21875 29.441406 -23.203125 30.171875 -21.890625 C 30.910156 -20.578125 31.28125 -19.050781 31.28125 -17.3125 L 31.28125 0 L 22.21875 0 L 22.21875 -14.84375 C 22.21875 -16.207031 21.78125 -17.398438 20.90625 -18.421875 C 20.039062 -19.453125 18.910156 -19.96875 17.515625 -19.96875 C 16.148438 -19.96875 14.910156 -19.4375 13.796875 -18.375 C 12.691406 -17.320312 12.140625 -16.144531 12.140625 -14.84375 L 12.140625 0 Z M 3.078125 0 "/></g></g></g><g fill="#ffffff" fill-opacity="1"><g transform="translate(207.96744, 201.374987)"><g><path d="M 3.9375 -40.90625 C 5 -41.96875 6.265625 -42.5 7.734375 -42.5 C 9.203125 -42.5 10.460938 -41.96875 11.515625 -40.90625 C 12.578125 -39.851562 13.109375 -38.59375 13.109375 -37.125 C 13.109375 -35.65625 12.578125 -34.390625 11.515625 -33.328125 C 10.460938 -32.273438 9.203125 -31.75 7.734375 -31.75 C 6.265625 -31.75 5 -32.273438 3.9375 -33.328125 C 2.882812 -34.390625 2.359375 -35.65625 2.359375 -37.125 C 2.359375 -38.59375 2.882812 -39.851562 3.9375 -40.90625 Z M 3.078125 -26.265625 L 3.078125 0 L 12.140625 0 L 12.140625 -26.265625 Z M 3.078125 -26.265625 "/></g></g></g><g fill="#ffffff" fill-opacity="1"><g transform="translate(218.61548, 201.374987)"><g><path d="M 4.859375 -3.25 C 2.398438 -5.925781 1.171875 -9.207031 1.171875 -13.09375 C 1.171875 -16.988281 2.398438 -20.285156 4.859375 -22.984375 C 7.316406 -25.679688 10.441406 -27.03125 14.234375 -27.03125 C 17.710938 -27.03125 20.582031 -25.941406 22.84375 -23.765625 L 22.84375 -44.03125 L 31.90625 -44.03125 L 31.90625 0 L 22.9375 0 L 22.9375 -2.96875 L 22.84375 -2.96875 C 20.582031 -0.476562 17.710938 0.765625 14.234375 0.765625 C 10.441406 0.765625 7.316406 -0.570312 4.859375 -3.25 Z M 12.5625 -17.5625 C 11.382812 -16.40625 10.796875 -14.921875 10.796875 -13.109375 C 10.796875 -11.296875 11.359375 -9.816406 12.484375 -8.671875 C 13.617188 -7.535156 15.109375 -6.96875 16.953125 -6.96875 C 18.722656 -6.96875 20.179688 -7.546875 21.328125 -8.703125 C 22.472656 -9.867188 23.046875 -11.335938 23.046875 -13.109375 C 23.046875 -14.921875 22.457031 -16.40625 21.28125 -17.5625 C 20.101562 -18.71875 18.660156 -19.296875 16.953125 -19.296875 C 15.210938 -19.296875 13.75 -18.71875 12.5625 -17.5625 Z M 12.5625 -17.5625 "/></g></g></g><g fill="#ffffff" fill-opacity="1"><g transform="translate(248.770431, 201.374987)"><g><path d="M 3.078125 0 L 3.078125 -44.03125 L 12.140625 -44.03125 L 12.140625 0 Z M 3.078125 0 "/></g></g></g><g fill="#ffffff" fill-opacity="1"><g transform="translate(259.162467, 201.374987)"><g><path d="M 29.640625 -11.875 L 10.59375 -11.875 C 10.59375 -10.03125 11.191406 -8.664062 12.390625 -7.78125 C 13.585938 -6.894531 14.882812 -6.453125 16.28125 -6.453125 C 17.75 -6.453125 18.910156 -6.644531 19.765625 -7.03125 C 20.617188 -7.425781 21.59375 -8.207031 22.6875 -9.375 L 29.234375 -6.09375 C 26.503906 -1.519531 21.960938 0.765625 15.609375 0.765625 C 11.648438 0.765625 8.253906 -0.585938 5.421875 -3.296875 C 2.585938 -6.015625 1.171875 -9.285156 1.171875 -13.109375 C 1.171875 -16.929688 2.585938 -20.207031 5.421875 -22.9375 C 8.253906 -25.664062 11.648438 -27.03125 15.609375 -27.03125 C 19.773438 -27.03125 23.164062 -25.828125 25.78125 -23.421875 C 28.394531 -21.015625 29.703125 -17.578125 29.703125 -13.109375 C 29.703125 -12.492188 29.679688 -12.082031 29.640625 -11.875 Z M 10.859375 -16.890625 L 20.84375 -16.890625 C 20.632812 -18.253906 20.09375 -19.300781 19.21875 -20.03125 C 18.351562 -20.769531 17.238281 -21.140625 15.875 -21.140625 C 14.375 -21.140625 13.175781 -20.75 12.28125 -19.96875 C 11.394531 -19.1875 10.921875 -18.160156 10.859375 -16.890625 Z M 10.859375 -16.890625 "/></g></g></g><g fill="#ffffff" fill-opacity="1"><g transform="translate(285.221486, 201.374987)"><g/></g></g><g fill="#ffffff" fill-opacity="1"><g transform="translate(294.384747, 201.374987)"><g><path d="M 8.90625 -10.953125 C 10.539062 -10.953125 11.929688 -10.378906 13.078125 -9.234375 C 14.222656 -8.097656 14.796875 -6.707031 14.796875 -5.0625 C 14.796875 -3.457031 14.222656 -2.082031 13.078125 -0.9375 C 11.929688 0.195312 10.539062 0.765625 8.90625 0.765625 C 7.300781 0.765625 5.925781 0.195312 4.78125 -0.9375 C 3.644531 -2.082031 3.078125 -3.457031 3.078125 -5.0625 C 3.078125 -6.707031 3.644531 -8.097656 4.78125 -9.234375 C 5.925781 -10.378906 7.300781 -10.953125 8.90625 -10.953125 Z M 8.90625 -10.953125 "/></g></g></g></svg>